%TF.GenerationSoftware,KiCad,Pcbnew,(6.0.7)*%
%TF.CreationDate,2023-01-17T21:34:43+03:00*%
%TF.ProjectId,4ChannelRelayModule,34436861-6e6e-4656-9c52-656c61794d6f,rev?*%
%TF.SameCoordinates,Original*%
%TF.FileFunction,Copper,L2,Bot*%
%TF.FilePolarity,Positive*%
%FSLAX46Y46*%
G04 Gerber Fmt 4.6, Leading zero omitted, Abs format (unit mm)*
G04 Created by KiCad (PCBNEW (6.0.7)) date 2023-01-17 21:34:43*
%MOMM*%
%LPD*%
G01*
G04 APERTURE LIST*
%TA.AperFunction,ComponentPad*%
%ADD10R,1.700000X1.700000*%
%TD*%
%TA.AperFunction,ComponentPad*%
%ADD11O,1.700000X1.700000*%
%TD*%
%TA.AperFunction,ComponentPad*%
%ADD12R,2.500000X2.500000*%
%TD*%
%TA.AperFunction,ComponentPad*%
%ADD13C,2.500000*%
%TD*%
%TA.AperFunction,ComponentPad*%
%ADD14C,1.950000*%
%TD*%
%TA.AperFunction,ViaPad*%
%ADD15C,0.800000*%
%TD*%
%TA.AperFunction,Conductor*%
%ADD16C,0.250000*%
%TD*%
%TA.AperFunction,Conductor*%
%ADD17C,0.560000*%
%TD*%
G04 APERTURE END LIST*
D10*
%TO.P,J1,1,Pin_1*%
%TO.N,/GND*%
X103124000Y-96458000D03*
D11*
%TO.P,J1,2,Pin_2*%
%TO.N,/IN1*%
X103124000Y-98998000D03*
%TO.P,J1,3,Pin_3*%
%TO.N,/IN2*%
X103124000Y-101538000D03*
%TO.P,J1,4,Pin_4*%
%TO.N,/IN3*%
X103124000Y-104078000D03*
%TO.P,J1,5,Pin_5*%
%TO.N,/IN4*%
X103124000Y-106618000D03*
%TO.P,J1,6,Pin_6*%
%TO.N,/VCC*%
X103124000Y-109158000D03*
%TD*%
D12*
%TO.P,J3,1,Pin_1*%
%TO.N,Net-(J3-Pad1)*%
X150072000Y-57700000D03*
D13*
%TO.P,J3,2,Pin_2*%
%TO.N,Net-(K1-PadCOM)*%
X150072000Y-62700000D03*
%TO.P,J3,3,Pin_3*%
%TO.N,Net-(K1-PadNO)*%
X150072000Y-67700000D03*
%TO.P,J3,4,Pin_4*%
%TO.N,Net-(J3-Pad4)*%
X150072000Y-72700000D03*
%TO.P,J3,5,Pin_5*%
%TO.N,Net-(K2-PadCOM)*%
X150072000Y-77700000D03*
%TO.P,J3,6,Pin_6*%
%TO.N,Net-(K2-PadNO)*%
X150072000Y-82700000D03*
%TD*%
D14*
%TO.P,K1,COIL1*%
%TO.N,/JD-VCC*%
X129794000Y-67564000D03*
%TO.P,K1,COIL2*%
%TO.N,Net-(D5-Pad2)*%
X129794000Y-55564000D03*
%TO.P,K1,COM*%
%TO.N,Net-(K1-PadCOM)*%
X127794000Y-61564000D03*
%TO.P,K1,NC*%
%TO.N,Net-(J3-Pad1)*%
X141994000Y-55564000D03*
%TO.P,K1,NO*%
%TO.N,Net-(K1-PadNO)*%
X141994000Y-67564000D03*
%TD*%
%TO.P,K2,COIL1*%
%TO.N,/JD-VCC*%
X129790000Y-83820000D03*
%TO.P,K2,COIL2*%
%TO.N,Net-(D6-Pad2)*%
X129790000Y-71820000D03*
%TO.P,K2,COM*%
%TO.N,Net-(K2-PadCOM)*%
X127790000Y-77820000D03*
%TO.P,K2,NC*%
%TO.N,Net-(J3-Pad4)*%
X141990000Y-71820000D03*
%TO.P,K2,NO*%
%TO.N,Net-(K2-PadNO)*%
X141990000Y-83820000D03*
%TD*%
%TO.P,K3,COIL1*%
%TO.N,/JD-VCC*%
X129794000Y-100076000D03*
%TO.P,K3,COIL2*%
%TO.N,Net-(D7-Pad2)*%
X129794000Y-88076000D03*
%TO.P,K3,COM*%
%TO.N,Net-(K3-PadCOM)*%
X127794000Y-94076000D03*
%TO.P,K3,NC*%
%TO.N,Net-(J4-Pad1)*%
X141994000Y-88076000D03*
%TO.P,K3,NO*%
%TO.N,Net-(J4-Pad3)*%
X141994000Y-100076000D03*
%TD*%
D10*
%TO.P,J2,1,Pin_1*%
%TO.N,/VCC*%
X109215000Y-119572000D03*
D11*
%TO.P,J2,2,Pin_2*%
%TO.N,/JD-VCC*%
X111755000Y-119572000D03*
%TD*%
D12*
%TO.P,J4,1,Pin_1*%
%TO.N,Net-(J4-Pad1)*%
X150072000Y-88942000D03*
D13*
%TO.P,J4,2,Pin_2*%
%TO.N,Net-(K3-PadCOM)*%
X150072000Y-93942000D03*
%TO.P,J4,3,Pin_3*%
%TO.N,Net-(J4-Pad3)*%
X150072000Y-98942000D03*
%TO.P,J4,4,Pin_4*%
%TO.N,Net-(J4-Pad4)*%
X150072000Y-103942000D03*
%TO.P,J4,5,Pin_5*%
%TO.N,Net-(J4-Pad5)*%
X150072000Y-108942000D03*
%TO.P,J4,6,Pin_6*%
%TO.N,Net-(J4-Pad6)*%
X150072000Y-113942000D03*
%TD*%
D14*
%TO.P,K4,COIL1*%
%TO.N,/JD-VCC*%
X129794000Y-116332000D03*
%TO.P,K4,COIL2*%
%TO.N,Net-(D8-Pad2)*%
X129794000Y-104332000D03*
%TO.P,K4,COM*%
%TO.N,Net-(J4-Pad5)*%
X127794000Y-110332000D03*
%TO.P,K4,NC*%
%TO.N,Net-(J4-Pad4)*%
X141994000Y-104332000D03*
%TO.P,K4,NO*%
%TO.N,Net-(J4-Pad6)*%
X141994000Y-116332000D03*
%TD*%
D15*
%TO.N,/IN1*%
X101854000Y-77408000D03*
X102108000Y-72836000D03*
%TO.N,Net-(D4-Pad2)*%
X109728000Y-110682000D03*
X104140000Y-90616000D03*
%TO.N,/JD-VCC*%
X118872000Y-61406000D03*
X118364000Y-110174000D03*
X117094000Y-75376000D03*
X117094000Y-91378000D03*
X121158000Y-112206000D03*
%TO.N,Net-(D6-Pad2)*%
X121412000Y-71820000D03*
%TO.N,Net-(D7-Pad2)*%
X121666000Y-86298000D03*
%TO.N,/GND*%
X118364000Y-88838000D03*
X118364000Y-73598000D03*
X106934000Y-98490000D03*
X118618000Y-104332000D03*
X119380000Y-58612000D03*
%TO.N,/IN3*%
X105918000Y-83504000D03*
X104765500Y-86806000D03*
%TO.N,Net-(Q4-Pad1)*%
X116586000Y-101538000D03*
X114046000Y-105094000D03*
%TD*%
D16*
%TO.N,/IN1*%
X101854000Y-73090000D02*
X101854000Y-77408000D01*
X102108000Y-72836000D02*
X101854000Y-73090000D01*
D17*
%TO.N,Net-(D4-Pad2)*%
X109728000Y-110682000D02*
X109728000Y-96204000D01*
X109728000Y-96204000D02*
X104140000Y-90616000D01*
%TO.N,/JD-VCC*%
X119498000Y-75258000D02*
X119498000Y-83640000D01*
X119678000Y-83820000D02*
X119498000Y-83640000D01*
X119498000Y-67638000D02*
X119498000Y-75258000D01*
X117094000Y-91378000D02*
X119380000Y-91378000D01*
X119498000Y-110292000D02*
X119498000Y-112342000D01*
X119634000Y-112206000D02*
X119498000Y-112342000D01*
X119498000Y-112832000D02*
X119498000Y-114882000D01*
X129794000Y-116332000D02*
X120948000Y-116332000D01*
X119498000Y-91496000D02*
X119498000Y-100150000D01*
X118872000Y-61406000D02*
X119498000Y-62032000D01*
X119572000Y-100076000D02*
X119498000Y-100150000D01*
X119498000Y-112342000D02*
X119498000Y-112832000D01*
X120948000Y-116332000D02*
X119498000Y-114882000D01*
X129794000Y-100076000D02*
X119572000Y-100076000D01*
X119572000Y-67564000D02*
X119498000Y-67638000D01*
X119380000Y-75376000D02*
X119498000Y-75258000D01*
X119498000Y-83640000D02*
X119498000Y-91496000D01*
X119380000Y-110174000D02*
X119498000Y-110292000D01*
X118364000Y-110174000D02*
X119380000Y-110174000D01*
X121158000Y-112206000D02*
X119634000Y-112206000D01*
X129794000Y-67564000D02*
X119572000Y-67564000D01*
X119498000Y-100150000D02*
X119498000Y-110292000D01*
X119380000Y-91378000D02*
X119498000Y-91496000D01*
X119498000Y-62032000D02*
X119498000Y-67638000D01*
X119498000Y-115136000D02*
X115062000Y-119572000D01*
X129790000Y-83820000D02*
X119678000Y-83820000D01*
X119498000Y-114882000D02*
X119498000Y-115136000D01*
X117094000Y-75376000D02*
X119380000Y-75376000D01*
X115062000Y-119572000D02*
X111755000Y-119572000D01*
%TO.N,Net-(D6-Pad2)*%
X121412000Y-71820000D02*
X129790000Y-71820000D01*
%TO.N,Net-(D7-Pad2)*%
X125730000Y-86298000D02*
X127508000Y-88076000D01*
X127508000Y-88076000D02*
X129794000Y-88076000D01*
X121666000Y-86298000D02*
X125730000Y-86298000D01*
D16*
%TO.N,/GND*%
X103124000Y-96458000D02*
X104902000Y-96458000D01*
X104902000Y-96458000D02*
X106934000Y-98490000D01*
%TO.N,/IN3*%
X105918000Y-85653500D02*
X105918000Y-83504000D01*
X104765500Y-86806000D02*
X105918000Y-85653500D01*
D17*
%TO.N,Net-(Q4-Pad1)*%
X116586000Y-101538000D02*
X116586000Y-102554000D01*
X116586000Y-102554000D02*
X114046000Y-105094000D01*
%TD*%
%TA.AperFunction,Conductor*%
%TO.N,/GND*%
G36*
X122878121Y-51520002D02*
G01*
X122924614Y-51573658D01*
X122936000Y-51626000D01*
X122936000Y-66649500D01*
X122915998Y-66717621D01*
X122862342Y-66764114D01*
X122810000Y-66775500D01*
X120412500Y-66775500D01*
X120344379Y-66755498D01*
X120297886Y-66701842D01*
X120286500Y-66649500D01*
X120286500Y-62041003D01*
X120286507Y-62039684D01*
X120287353Y-61958859D01*
X120287427Y-61951813D01*
X120283608Y-61934148D01*
X120278526Y-61910643D01*
X120276465Y-61898061D01*
X120272555Y-61863201D01*
X120272555Y-61863199D01*
X120271770Y-61856204D01*
X120261078Y-61825500D01*
X120256916Y-61810694D01*
X120251532Y-61785794D01*
X120250044Y-61778910D01*
X120232241Y-61740732D01*
X120227446Y-61728922D01*
X120215910Y-61695796D01*
X120213594Y-61689145D01*
X120196358Y-61661561D01*
X120189024Y-61648052D01*
X120178261Y-61624971D01*
X120175283Y-61618585D01*
X120149463Y-61585297D01*
X120142171Y-61574843D01*
X120123586Y-61545102D01*
X120119852Y-61539126D01*
X120091953Y-61511032D01*
X120091388Y-61510428D01*
X120090881Y-61509774D01*
X120065447Y-61484340D01*
X119995203Y-61413604D01*
X119994189Y-61412960D01*
X119993009Y-61411902D01*
X119771704Y-61190596D01*
X119740967Y-61140438D01*
X119708568Y-61040725D01*
X119708567Y-61040724D01*
X119706527Y-61034444D01*
X119611040Y-60869056D01*
X119483253Y-60727134D01*
X119328752Y-60614882D01*
X119322724Y-60612198D01*
X119322722Y-60612197D01*
X119160319Y-60539891D01*
X119160318Y-60539891D01*
X119154288Y-60537206D01*
X119060888Y-60517353D01*
X118973944Y-60498872D01*
X118973939Y-60498872D01*
X118967487Y-60497500D01*
X118776513Y-60497500D01*
X118770061Y-60498872D01*
X118770056Y-60498872D01*
X118683112Y-60517353D01*
X118589712Y-60537206D01*
X118583682Y-60539891D01*
X118583681Y-60539891D01*
X118421278Y-60612197D01*
X118421276Y-60612198D01*
X118415248Y-60614882D01*
X118260747Y-60727134D01*
X118132960Y-60869056D01*
X118037473Y-61034444D01*
X117978458Y-61216072D01*
X117958496Y-61406000D01*
X117959186Y-61412565D01*
X117977341Y-61585297D01*
X117978458Y-61595928D01*
X118037473Y-61777556D01*
X118040776Y-61783278D01*
X118040777Y-61783279D01*
X118074686Y-61842010D01*
X118132960Y-61942944D01*
X118137378Y-61947851D01*
X118137379Y-61947852D01*
X118256325Y-62079955D01*
X118260747Y-62084866D01*
X118415248Y-62197118D01*
X118421276Y-62199802D01*
X118421278Y-62199803D01*
X118583679Y-62272108D01*
X118589712Y-62274794D01*
X118598891Y-62276745D01*
X118600291Y-62277505D01*
X118602448Y-62278206D01*
X118602318Y-62278606D01*
X118661783Y-62310891D01*
X118672591Y-62321698D01*
X118706619Y-62384009D01*
X118709500Y-62410798D01*
X118709500Y-67624084D01*
X118709152Y-67723696D01*
X118709414Y-67724870D01*
X118709500Y-67726451D01*
X118709500Y-74461500D01*
X118689498Y-74529621D01*
X118635842Y-74576114D01*
X118583500Y-74587500D01*
X117583415Y-74587500D01*
X117532166Y-74576607D01*
X117382319Y-74509891D01*
X117382318Y-74509891D01*
X117376288Y-74507206D01*
X117282888Y-74487353D01*
X117195944Y-74468872D01*
X117195939Y-74468872D01*
X117189487Y-74467500D01*
X116998513Y-74467500D01*
X116992061Y-74468872D01*
X116992056Y-74468872D01*
X116905112Y-74487353D01*
X116811712Y-74507206D01*
X116805682Y-74509891D01*
X116805681Y-74509891D01*
X116643278Y-74582197D01*
X116643276Y-74582198D01*
X116637248Y-74584882D01*
X116482747Y-74697134D01*
X116354960Y-74839056D01*
X116259473Y-75004444D01*
X116200458Y-75186072D01*
X116180496Y-75376000D01*
X116200458Y-75565928D01*
X116259473Y-75747556D01*
X116354960Y-75912944D01*
X116482747Y-76054866D01*
X116637248Y-76167118D01*
X116643276Y-76169802D01*
X116643278Y-76169803D01*
X116676293Y-76184502D01*
X116811712Y-76244794D01*
X116905113Y-76264647D01*
X116992056Y-76283128D01*
X116992061Y-76283128D01*
X116998513Y-76284500D01*
X117189487Y-76284500D01*
X117195939Y-76283128D01*
X117195944Y-76283128D01*
X117282887Y-76264647D01*
X117376288Y-76244794D01*
X117532166Y-76175393D01*
X117583415Y-76164500D01*
X118583500Y-76164500D01*
X118651621Y-76184502D01*
X118698114Y-76238158D01*
X118709500Y-76290500D01*
X118709500Y-83630997D01*
X118709493Y-83632315D01*
X118708573Y-83720187D01*
X118709272Y-83723418D01*
X118709500Y-83727925D01*
X118709500Y-90463500D01*
X118689498Y-90531621D01*
X118635842Y-90578114D01*
X118583500Y-90589500D01*
X117583415Y-90589500D01*
X117532166Y-90578607D01*
X117382319Y-90511891D01*
X117382318Y-90511891D01*
X117376288Y-90509206D01*
X117282888Y-90489353D01*
X117195944Y-90470872D01*
X117195939Y-90470872D01*
X117189487Y-90469500D01*
X116998513Y-90469500D01*
X116992061Y-90470872D01*
X116992056Y-90470872D01*
X116905113Y-90489353D01*
X116811712Y-90509206D01*
X116805682Y-90511891D01*
X116805681Y-90511891D01*
X116643278Y-90584197D01*
X116643276Y-90584198D01*
X116637248Y-90586882D01*
X116482747Y-90699134D01*
X116354960Y-90841056D01*
X116259473Y-91006444D01*
X116200458Y-91188072D01*
X116180496Y-91378000D01*
X116200458Y-91567928D01*
X116259473Y-91749556D01*
X116354960Y-91914944D01*
X116482747Y-92056866D01*
X116637248Y-92169118D01*
X116643276Y-92171802D01*
X116643278Y-92171803D01*
X116676293Y-92186502D01*
X116811712Y-92246794D01*
X116905113Y-92266647D01*
X116992056Y-92285128D01*
X116992061Y-92285128D01*
X116998513Y-92286500D01*
X117189487Y-92286500D01*
X117195939Y-92285128D01*
X117195944Y-92285128D01*
X117282888Y-92266647D01*
X117376288Y-92246794D01*
X117532166Y-92177393D01*
X117583415Y-92166500D01*
X118583500Y-92166500D01*
X118651621Y-92186502D01*
X118698114Y-92240158D01*
X118709500Y-92292500D01*
X118709500Y-100136084D01*
X118709152Y-100235696D01*
X118709414Y-100236870D01*
X118709500Y-100238451D01*
X118709500Y-109163045D01*
X118689498Y-109231166D01*
X118635842Y-109277659D01*
X118565568Y-109287763D01*
X118557302Y-109286291D01*
X118465951Y-109266873D01*
X118465942Y-109266872D01*
X118459487Y-109265500D01*
X118268513Y-109265500D01*
X118262061Y-109266872D01*
X118262056Y-109266872D01*
X118175112Y-109285353D01*
X118081712Y-109305206D01*
X118075682Y-109307891D01*
X118075681Y-109307891D01*
X117913278Y-109380197D01*
X117913276Y-109380198D01*
X117907248Y-109382882D01*
X117752747Y-109495134D01*
X117624960Y-109637056D01*
X117529473Y-109802444D01*
X117470458Y-109984072D01*
X117450496Y-110174000D01*
X117470458Y-110363928D01*
X117529473Y-110545556D01*
X117624960Y-110710944D01*
X117752747Y-110852866D01*
X117907248Y-110965118D01*
X117913276Y-110967802D01*
X117913278Y-110967803D01*
X118018499Y-111014650D01*
X118081712Y-111042794D01*
X118170700Y-111061709D01*
X118262056Y-111081128D01*
X118262061Y-111081128D01*
X118268513Y-111082500D01*
X118459487Y-111082500D01*
X118465942Y-111081128D01*
X118465951Y-111081127D01*
X118557302Y-111061709D01*
X118628093Y-111067110D01*
X118684726Y-111109926D01*
X118709220Y-111176564D01*
X118709500Y-111184955D01*
X118709500Y-112328084D01*
X118709152Y-112427696D01*
X118709414Y-112428870D01*
X118709500Y-112430451D01*
X118709500Y-114757203D01*
X118689498Y-114825324D01*
X118672595Y-114846298D01*
X118555798Y-114963095D01*
X118493486Y-114997121D01*
X118466703Y-115000000D01*
X105790000Y-115000000D01*
X105721879Y-114979998D01*
X105675386Y-114926342D01*
X105664000Y-114874000D01*
X105664000Y-93559298D01*
X105684002Y-93491177D01*
X105737658Y-93444684D01*
X105807932Y-93434580D01*
X105872512Y-93464074D01*
X105879095Y-93470203D01*
X108902595Y-96493702D01*
X108936621Y-96556014D01*
X108939500Y-96582797D01*
X108939500Y-110196962D01*
X108922619Y-110259961D01*
X108893473Y-110310444D01*
X108834458Y-110492072D01*
X108814496Y-110682000D01*
X108815186Y-110688565D01*
X108832863Y-110856749D01*
X108834458Y-110871928D01*
X108893473Y-111053556D01*
X108988960Y-111218944D01*
X108993378Y-111223851D01*
X108993379Y-111223852D01*
X109112325Y-111355955D01*
X109116747Y-111360866D01*
X109271248Y-111473118D01*
X109277276Y-111475802D01*
X109277278Y-111475803D01*
X109439681Y-111548109D01*
X109445712Y-111550794D01*
X109539112Y-111570647D01*
X109626056Y-111589128D01*
X109626061Y-111589128D01*
X109632513Y-111590500D01*
X109823487Y-111590500D01*
X109829939Y-111589128D01*
X109829944Y-111589128D01*
X109916887Y-111570647D01*
X110010288Y-111550794D01*
X110016319Y-111548109D01*
X110178722Y-111475803D01*
X110178724Y-111475802D01*
X110184752Y-111473118D01*
X110339253Y-111360866D01*
X110343675Y-111355955D01*
X110462621Y-111223852D01*
X110462622Y-111223851D01*
X110467040Y-111218944D01*
X110562527Y-111053556D01*
X110621542Y-110871928D01*
X110623138Y-110856749D01*
X110640814Y-110688565D01*
X110641504Y-110682000D01*
X110621542Y-110492072D01*
X110562527Y-110310444D01*
X110533381Y-110259961D01*
X110516500Y-110196962D01*
X110516500Y-105094000D01*
X113132496Y-105094000D01*
X113152458Y-105283928D01*
X113211473Y-105465556D01*
X113306960Y-105630944D01*
X113434747Y-105772866D01*
X113589248Y-105885118D01*
X113595276Y-105887802D01*
X113595278Y-105887803D01*
X113757681Y-105960109D01*
X113763712Y-105962794D01*
X113857113Y-105982647D01*
X113944056Y-106001128D01*
X113944061Y-106001128D01*
X113950513Y-106002500D01*
X114141487Y-106002500D01*
X114147939Y-106001128D01*
X114147944Y-106001128D01*
X114234888Y-105982647D01*
X114328288Y-105962794D01*
X114334319Y-105960109D01*
X114496722Y-105887803D01*
X114496724Y-105887802D01*
X114502752Y-105885118D01*
X114657253Y-105772866D01*
X114785040Y-105630944D01*
X114880527Y-105465556D01*
X114914967Y-105359561D01*
X114945705Y-105309403D01*
X117137141Y-103117966D01*
X117138078Y-103117038D01*
X117195881Y-103060433D01*
X117195882Y-103060432D01*
X117200910Y-103055508D01*
X117223736Y-103020089D01*
X117231170Y-103009745D01*
X117253050Y-102982336D01*
X117257444Y-102976832D01*
X117260509Y-102970492D01*
X117271598Y-102947555D01*
X117279124Y-102934144D01*
X117292921Y-102912735D01*
X117292922Y-102912732D01*
X117296737Y-102906813D01*
X117299146Y-102900194D01*
X117299150Y-102900186D01*
X117311145Y-102867230D01*
X117316106Y-102855484D01*
X117331371Y-102823907D01*
X117334436Y-102817567D01*
X117341749Y-102785890D01*
X117346119Y-102771138D01*
X117354830Y-102747204D01*
X117357240Y-102740583D01*
X117362520Y-102698794D01*
X117364755Y-102686247D01*
X117372646Y-102652065D01*
X117372646Y-102652062D01*
X117374230Y-102645202D01*
X117374368Y-102605636D01*
X117374396Y-102604779D01*
X117374500Y-102603960D01*
X117374500Y-102567791D01*
X117374847Y-102468304D01*
X117374585Y-102467133D01*
X117374500Y-102465559D01*
X117374500Y-102023038D01*
X117391381Y-101960038D01*
X117417223Y-101915279D01*
X117417224Y-101915278D01*
X117420527Y-101909556D01*
X117479542Y-101727928D01*
X117499504Y-101538000D01*
X117479542Y-101348072D01*
X117420527Y-101166444D01*
X117325040Y-101001056D01*
X117315536Y-100990500D01*
X117201675Y-100864045D01*
X117201674Y-100864044D01*
X117197253Y-100859134D01*
X117042752Y-100746882D01*
X117036724Y-100744198D01*
X117036722Y-100744197D01*
X116874319Y-100671891D01*
X116874318Y-100671891D01*
X116868288Y-100669206D01*
X116774888Y-100649353D01*
X116687944Y-100630872D01*
X116687939Y-100630872D01*
X116681487Y-100629500D01*
X116490513Y-100629500D01*
X116484061Y-100630872D01*
X116484056Y-100630872D01*
X116397113Y-100649353D01*
X116303712Y-100669206D01*
X116297682Y-100671891D01*
X116297681Y-100671891D01*
X116135278Y-100744197D01*
X116135276Y-100744198D01*
X116129248Y-100746882D01*
X115974747Y-100859134D01*
X115970326Y-100864044D01*
X115970325Y-100864045D01*
X115856465Y-100990500D01*
X115846960Y-101001056D01*
X115751473Y-101166444D01*
X115692458Y-101348072D01*
X115672496Y-101538000D01*
X115692458Y-101727928D01*
X115751473Y-101909556D01*
X115754776Y-101915278D01*
X115754777Y-101915279D01*
X115780619Y-101960038D01*
X115797500Y-102023038D01*
X115797500Y-102175203D01*
X115777498Y-102243324D01*
X115760595Y-102264298D01*
X113835788Y-104189104D01*
X113776318Y-104221394D01*
X113776448Y-104221794D01*
X113774291Y-104222495D01*
X113772891Y-104223255D01*
X113763712Y-104225206D01*
X113757679Y-104227892D01*
X113595278Y-104300197D01*
X113595276Y-104300198D01*
X113589248Y-104302882D01*
X113434747Y-104415134D01*
X113306960Y-104557056D01*
X113211473Y-104722444D01*
X113152458Y-104904072D01*
X113132496Y-105094000D01*
X110516500Y-105094000D01*
X110516500Y-96212954D01*
X110516507Y-96211636D01*
X110517352Y-96130859D01*
X110517426Y-96123812D01*
X110508526Y-96082646D01*
X110506466Y-96070071D01*
X110502555Y-96035202D01*
X110501770Y-96028204D01*
X110491074Y-95997489D01*
X110486912Y-95982679D01*
X110481532Y-95957796D01*
X110480043Y-95950909D01*
X110462236Y-95912722D01*
X110457454Y-95900945D01*
X110443594Y-95861145D01*
X110426366Y-95833574D01*
X110419027Y-95820057D01*
X110408260Y-95796968D01*
X110408258Y-95796964D01*
X110405283Y-95790585D01*
X110379467Y-95757303D01*
X110372173Y-95746847D01*
X110353585Y-95717099D01*
X110353582Y-95717095D01*
X110349852Y-95711126D01*
X110321952Y-95683031D01*
X110321387Y-95682427D01*
X110320880Y-95681773D01*
X110295451Y-95656344D01*
X110225203Y-95585604D01*
X110224189Y-95584960D01*
X110223003Y-95583896D01*
X105700905Y-91061797D01*
X105666879Y-90999485D01*
X105664000Y-90972702D01*
X105664000Y-86955360D01*
X105664690Y-86942190D01*
X105676407Y-86830708D01*
X105703420Y-86765051D01*
X105712622Y-86754782D01*
X106310258Y-86157147D01*
X106318537Y-86149613D01*
X106325018Y-86145500D01*
X106371644Y-86095848D01*
X106374398Y-86093007D01*
X106394135Y-86073270D01*
X106396615Y-86070073D01*
X106404320Y-86061051D01*
X106429159Y-86034600D01*
X106434586Y-86028821D01*
X106438405Y-86021875D01*
X106438407Y-86021872D01*
X106444348Y-86011066D01*
X106455199Y-85994547D01*
X106462758Y-85984801D01*
X106467614Y-85978541D01*
X106470759Y-85971272D01*
X106470762Y-85971268D01*
X106485174Y-85937963D01*
X106490391Y-85927313D01*
X106511695Y-85888560D01*
X106516733Y-85868937D01*
X106523137Y-85850234D01*
X106528033Y-85838920D01*
X106528033Y-85838919D01*
X106531181Y-85831645D01*
X106532420Y-85823822D01*
X106532423Y-85823812D01*
X106538099Y-85787976D01*
X106540505Y-85776356D01*
X106549528Y-85741211D01*
X106549528Y-85741210D01*
X106551500Y-85733530D01*
X106551500Y-85713276D01*
X106553051Y-85693565D01*
X106554980Y-85681386D01*
X106556220Y-85673557D01*
X106552059Y-85629538D01*
X106551500Y-85617681D01*
X106551500Y-84206524D01*
X106571502Y-84138403D01*
X106583858Y-84122221D01*
X106657040Y-84040944D01*
X106752527Y-83875556D01*
X106811542Y-83693928D01*
X106831504Y-83504000D01*
X106811542Y-83314072D01*
X106752527Y-83132444D01*
X106739144Y-83109263D01*
X106687673Y-83020114D01*
X106657040Y-82967056D01*
X106529253Y-82825134D01*
X106374752Y-82712882D01*
X106368724Y-82710198D01*
X106368722Y-82710197D01*
X106206319Y-82637891D01*
X106206318Y-82637891D01*
X106200288Y-82635206D01*
X106106887Y-82615353D01*
X106019944Y-82596872D01*
X106019939Y-82596872D01*
X106013487Y-82595500D01*
X105822513Y-82595500D01*
X105816056Y-82596872D01*
X105809485Y-82597563D01*
X105809354Y-82596319D01*
X105745415Y-82591444D01*
X105688779Y-82548632D01*
X105664280Y-82481996D01*
X105664000Y-82473596D01*
X105664000Y-51626000D01*
X105684002Y-51557879D01*
X105737658Y-51511386D01*
X105790000Y-51500000D01*
X122810000Y-51500000D01*
X122878121Y-51520002D01*
G37*
%TD.AperFunction*%
%TD*%
M02*
