%TF.GenerationSoftware,KiCad,Pcbnew,(6.0.7)*%
%TF.CreationDate,2023-01-17T21:34:43+03:00*%
%TF.ProjectId,4ChannelRelayModule,34436861-6e6e-4656-9c52-656c61794d6f,rev?*%
%TF.SameCoordinates,Original*%
%TF.FileFunction,Paste,Top*%
%TF.FilePolarity,Positive*%
%FSLAX46Y46*%
G04 Gerber Fmt 4.6, Leading zero omitted, Abs format (unit mm)*
G04 Created by KiCad (PCBNEW (6.0.7)) date 2023-01-17 21:34:43*
%MOMM*%
%LPD*%
G01*
G04 APERTURE LIST*
G04 Aperture macros list*
%AMRoundRect*
0 Rectangle with rounded corners*
0 $1 Rounding radius*
0 $2 $3 $4 $5 $6 $7 $8 $9 X,Y pos of 4 corners*
0 Add a 4 corners polygon primitive as box body*
4,1,4,$2,$3,$4,$5,$6,$7,$8,$9,$2,$3,0*
0 Add four circle primitives for the rounded corners*
1,1,$1+$1,$2,$3*
1,1,$1+$1,$4,$5*
1,1,$1+$1,$6,$7*
1,1,$1+$1,$8,$9*
0 Add four rect primitives between the rounded corners*
20,1,$1+$1,$2,$3,$4,$5,0*
20,1,$1+$1,$4,$5,$6,$7,0*
20,1,$1+$1,$6,$7,$8,$9,0*
20,1,$1+$1,$8,$9,$2,$3,0*%
G04 Aperture macros list end*
%ADD10R,1.700000X1.450000*%
%ADD11RoundRect,0.243750X-0.456250X0.243750X-0.456250X-0.243750X0.456250X-0.243750X0.456250X0.243750X0*%
%ADD12RoundRect,0.250000X-0.450000X0.262500X-0.450000X-0.262500X0.450000X-0.262500X0.450000X0.262500X0*%
%ADD13R,1.200000X1.200000*%
%ADD14RoundRect,0.250000X0.450000X-0.262500X0.450000X0.262500X-0.450000X0.262500X-0.450000X-0.262500X0*%
%ADD15RoundRect,0.150000X-0.587500X-0.150000X0.587500X-0.150000X0.587500X0.150000X-0.587500X0.150000X0*%
%ADD16RoundRect,0.243750X0.456250X-0.243750X0.456250X0.243750X-0.456250X0.243750X-0.456250X-0.243750X0*%
G04 APERTURE END LIST*
D10*
%TO.C,U3*%
X107314000Y-93156000D03*
X107314000Y-95696000D03*
X116714000Y-95696000D03*
X116714000Y-93156000D03*
%TD*%
D11*
%TO.C,D4*%
X103886000Y-83250000D03*
X103886000Y-85125000D03*
%TD*%
D12*
%TO.C,R4*%
X110236000Y-101030000D03*
X110236000Y-102855000D03*
%TD*%
D11*
%TO.C,D3*%
X103886000Y-78932000D03*
X103886000Y-80807000D03*
%TD*%
D13*
%TO.C,D6*%
X122936000Y-79446000D03*
X122936000Y-76646000D03*
%TD*%
D14*
%TO.C,R6*%
X113792000Y-71867000D03*
X113792000Y-70042000D03*
%TD*%
D10*
%TO.C,U2*%
X107314000Y-77154000D03*
X107314000Y-79694000D03*
X116714000Y-79694000D03*
X116714000Y-77154000D03*
%TD*%
D14*
%TO.C,R3*%
X110236000Y-87464500D03*
X110236000Y-85639500D03*
%TD*%
D15*
%TO.C,Q3*%
X117426500Y-85348000D03*
X117426500Y-87248000D03*
X119301500Y-86298000D03*
%TD*%
D10*
%TO.C,U4*%
X107060000Y-110174000D03*
X107060000Y-112714000D03*
X116460000Y-112714000D03*
X116460000Y-110174000D03*
%TD*%
D13*
%TO.C,D8*%
X122936000Y-112082000D03*
X122936000Y-109282000D03*
%TD*%
D10*
%TO.C,U1*%
X107314000Y-60898000D03*
X107314000Y-63438000D03*
X116714000Y-63438000D03*
X116714000Y-60898000D03*
%TD*%
D12*
%TO.C,R2*%
X110236000Y-70042000D03*
X110236000Y-71867000D03*
%TD*%
D14*
%TO.C,R5*%
X113792000Y-56476500D03*
X113792000Y-54651500D03*
%TD*%
%TO.C,R7*%
X113792000Y-87361000D03*
X113792000Y-85536000D03*
%TD*%
D15*
%TO.C,Q4*%
X117680500Y-101096000D03*
X117680500Y-102996000D03*
X119555500Y-102046000D03*
%TD*%
D16*
%TO.C,D1*%
X103886000Y-71995500D03*
X103886000Y-70120500D03*
%TD*%
D13*
%TO.C,D5*%
X122936000Y-63314000D03*
X122936000Y-60514000D03*
%TD*%
D14*
%TO.C,R1*%
X110236000Y-56476500D03*
X110236000Y-54651500D03*
%TD*%
D11*
%TO.C,D2*%
X103886000Y-74614000D03*
X103886000Y-76489000D03*
%TD*%
D13*
%TO.C,D7*%
X122936000Y-95318000D03*
X122936000Y-92518000D03*
%TD*%
D15*
%TO.C,Q2*%
X117426500Y-70042000D03*
X117426500Y-71942000D03*
X119301500Y-70992000D03*
%TD*%
%TO.C,Q1*%
X117426500Y-54614000D03*
X117426500Y-56514000D03*
X119301500Y-55564000D03*
%TD*%
D12*
%TO.C,R8*%
X113792000Y-101133500D03*
X113792000Y-102958500D03*
%TD*%
M02*
