%TF.GenerationSoftware,KiCad,Pcbnew,(6.0.7)*%
%TF.CreationDate,2023-01-17T21:34:43+03:00*%
%TF.ProjectId,4ChannelRelayModule,34436861-6e6e-4656-9c52-656c61794d6f,rev?*%
%TF.SameCoordinates,Original*%
%TF.FileFunction,Copper,L1,Top*%
%TF.FilePolarity,Positive*%
%FSLAX46Y46*%
G04 Gerber Fmt 4.6, Leading zero omitted, Abs format (unit mm)*
G04 Created by KiCad (PCBNEW (6.0.7)) date 2023-01-17 21:34:43*
%MOMM*%
%LPD*%
G01*
G04 APERTURE LIST*
G04 Aperture macros list*
%AMRoundRect*
0 Rectangle with rounded corners*
0 $1 Rounding radius*
0 $2 $3 $4 $5 $6 $7 $8 $9 X,Y pos of 4 corners*
0 Add a 4 corners polygon primitive as box body*
4,1,4,$2,$3,$4,$5,$6,$7,$8,$9,$2,$3,0*
0 Add four circle primitives for the rounded corners*
1,1,$1+$1,$2,$3*
1,1,$1+$1,$4,$5*
1,1,$1+$1,$6,$7*
1,1,$1+$1,$8,$9*
0 Add four rect primitives between the rounded corners*
20,1,$1+$1,$2,$3,$4,$5,0*
20,1,$1+$1,$4,$5,$6,$7,0*
20,1,$1+$1,$6,$7,$8,$9,0*
20,1,$1+$1,$8,$9,$2,$3,0*%
G04 Aperture macros list end*
%TA.AperFunction,SMDPad,CuDef*%
%ADD10R,1.700000X1.450000*%
%TD*%
%TA.AperFunction,SMDPad,CuDef*%
%ADD11RoundRect,0.243750X-0.456250X0.243750X-0.456250X-0.243750X0.456250X-0.243750X0.456250X0.243750X0*%
%TD*%
%TA.AperFunction,SMDPad,CuDef*%
%ADD12RoundRect,0.250000X-0.450000X0.262500X-0.450000X-0.262500X0.450000X-0.262500X0.450000X0.262500X0*%
%TD*%
%TA.AperFunction,SMDPad,CuDef*%
%ADD13R,1.200000X1.200000*%
%TD*%
%TA.AperFunction,SMDPad,CuDef*%
%ADD14RoundRect,0.250000X0.450000X-0.262500X0.450000X0.262500X-0.450000X0.262500X-0.450000X-0.262500X0*%
%TD*%
%TA.AperFunction,SMDPad,CuDef*%
%ADD15RoundRect,0.150000X-0.587500X-0.150000X0.587500X-0.150000X0.587500X0.150000X-0.587500X0.150000X0*%
%TD*%
%TA.AperFunction,ComponentPad*%
%ADD16R,1.700000X1.700000*%
%TD*%
%TA.AperFunction,ComponentPad*%
%ADD17O,1.700000X1.700000*%
%TD*%
%TA.AperFunction,ComponentPad*%
%ADD18R,2.500000X2.500000*%
%TD*%
%TA.AperFunction,ComponentPad*%
%ADD19C,2.500000*%
%TD*%
%TA.AperFunction,ComponentPad*%
%ADD20C,1.950000*%
%TD*%
%TA.AperFunction,SMDPad,CuDef*%
%ADD21RoundRect,0.243750X0.456250X-0.243750X0.456250X0.243750X-0.456250X0.243750X-0.456250X-0.243750X0*%
%TD*%
%TA.AperFunction,ViaPad*%
%ADD22C,0.800000*%
%TD*%
%TA.AperFunction,Conductor*%
%ADD23C,0.250000*%
%TD*%
%TA.AperFunction,Conductor*%
%ADD24C,0.560000*%
%TD*%
%TA.AperFunction,Conductor*%
%ADD25C,2.000000*%
%TD*%
G04 APERTURE END LIST*
D10*
%TO.P,U3,1*%
%TO.N,Net-(R3-Pad2)*%
X107314000Y-93156000D03*
%TO.P,U3,2*%
%TO.N,Net-(D3-Pad2)*%
X107314000Y-95696000D03*
%TO.P,U3,3*%
%TO.N,Net-(R7-Pad1)*%
X116714000Y-95696000D03*
%TO.P,U3,4*%
%TO.N,/JD-VCC*%
X116714000Y-93156000D03*
%TD*%
D11*
%TO.P,D4,1,K*%
%TO.N,/IN4*%
X103886000Y-83250000D03*
%TO.P,D4,2,A*%
%TO.N,Net-(D4-Pad2)*%
X103886000Y-85125000D03*
%TD*%
D12*
%TO.P,R4,1*%
%TO.N,/VCC*%
X110236000Y-101030000D03*
%TO.P,R4,2*%
%TO.N,Net-(R4-Pad2)*%
X110236000Y-102855000D03*
%TD*%
D11*
%TO.P,D3,1,K*%
%TO.N,/IN3*%
X103886000Y-78932000D03*
%TO.P,D3,2,A*%
%TO.N,Net-(D3-Pad2)*%
X103886000Y-80807000D03*
%TD*%
D13*
%TO.P,D6,1,K*%
%TO.N,/JD-VCC*%
X122936000Y-79446000D03*
%TO.P,D6,2,A*%
%TO.N,Net-(D6-Pad2)*%
X122936000Y-76646000D03*
%TD*%
D14*
%TO.P,R6,1*%
%TO.N,Net-(R6-Pad1)*%
X113792000Y-71867000D03*
%TO.P,R6,2*%
%TO.N,Net-(Q2-Pad1)*%
X113792000Y-70042000D03*
%TD*%
D10*
%TO.P,U2,1*%
%TO.N,Net-(R2-Pad2)*%
X107314000Y-77154000D03*
%TO.P,U2,2*%
%TO.N,Net-(D2-Pad2)*%
X107314000Y-79694000D03*
%TO.P,U2,3*%
%TO.N,Net-(R6-Pad1)*%
X116714000Y-79694000D03*
%TO.P,U2,4*%
%TO.N,/JD-VCC*%
X116714000Y-77154000D03*
%TD*%
D14*
%TO.P,R3,1*%
%TO.N,/VCC*%
X110236000Y-87464500D03*
%TO.P,R3,2*%
%TO.N,Net-(R3-Pad2)*%
X110236000Y-85639500D03*
%TD*%
D15*
%TO.P,Q3,1,B*%
%TO.N,Net-(Q3-Pad1)*%
X117426500Y-85348000D03*
%TO.P,Q3,2,E*%
%TO.N,/GND*%
X117426500Y-87248000D03*
%TO.P,Q3,3,C*%
%TO.N,Net-(D7-Pad2)*%
X119301500Y-86298000D03*
%TD*%
D10*
%TO.P,U4,1*%
%TO.N,Net-(R4-Pad2)*%
X107060000Y-110174000D03*
%TO.P,U4,2*%
%TO.N,Net-(D4-Pad2)*%
X107060000Y-112714000D03*
%TO.P,U4,3*%
%TO.N,Net-(R8-Pad1)*%
X116460000Y-112714000D03*
%TO.P,U4,4*%
%TO.N,/JD-VCC*%
X116460000Y-110174000D03*
%TD*%
D13*
%TO.P,D8,1,K*%
%TO.N,/JD-VCC*%
X122936000Y-112082000D03*
%TO.P,D8,2,A*%
%TO.N,Net-(D8-Pad2)*%
X122936000Y-109282000D03*
%TD*%
D16*
%TO.P,J1,1,Pin_1*%
%TO.N,/GND*%
X103124000Y-96458000D03*
D17*
%TO.P,J1,2,Pin_2*%
%TO.N,/IN1*%
X103124000Y-98998000D03*
%TO.P,J1,3,Pin_3*%
%TO.N,/IN2*%
X103124000Y-101538000D03*
%TO.P,J1,4,Pin_4*%
%TO.N,/IN3*%
X103124000Y-104078000D03*
%TO.P,J1,5,Pin_5*%
%TO.N,/IN4*%
X103124000Y-106618000D03*
%TO.P,J1,6,Pin_6*%
%TO.N,/VCC*%
X103124000Y-109158000D03*
%TD*%
D18*
%TO.P,J3,1,Pin_1*%
%TO.N,Net-(J3-Pad1)*%
X150072000Y-57700000D03*
D19*
%TO.P,J3,2,Pin_2*%
%TO.N,Net-(K1-PadCOM)*%
X150072000Y-62700000D03*
%TO.P,J3,3,Pin_3*%
%TO.N,Net-(K1-PadNO)*%
X150072000Y-67700000D03*
%TO.P,J3,4,Pin_4*%
%TO.N,Net-(J3-Pad4)*%
X150072000Y-72700000D03*
%TO.P,J3,5,Pin_5*%
%TO.N,Net-(K2-PadCOM)*%
X150072000Y-77700000D03*
%TO.P,J3,6,Pin_6*%
%TO.N,Net-(K2-PadNO)*%
X150072000Y-82700000D03*
%TD*%
D10*
%TO.P,U1,1*%
%TO.N,Net-(R1-Pad2)*%
X107314000Y-60898000D03*
%TO.P,U1,2*%
%TO.N,Net-(D1-Pad2)*%
X107314000Y-63438000D03*
%TO.P,U1,3*%
%TO.N,Net-(R5-Pad1)*%
X116714000Y-63438000D03*
%TO.P,U1,4*%
%TO.N,/JD-VCC*%
X116714000Y-60898000D03*
%TD*%
D20*
%TO.P,K1,COIL1*%
%TO.N,/JD-VCC*%
X129794000Y-67564000D03*
%TO.P,K1,COIL2*%
%TO.N,Net-(D5-Pad2)*%
X129794000Y-55564000D03*
%TO.P,K1,COM*%
%TO.N,Net-(K1-PadCOM)*%
X127794000Y-61564000D03*
%TO.P,K1,NC*%
%TO.N,Net-(J3-Pad1)*%
X141994000Y-55564000D03*
%TO.P,K1,NO*%
%TO.N,Net-(K1-PadNO)*%
X141994000Y-67564000D03*
%TD*%
D12*
%TO.P,R2,1*%
%TO.N,/VCC*%
X110236000Y-70042000D03*
%TO.P,R2,2*%
%TO.N,Net-(R2-Pad2)*%
X110236000Y-71867000D03*
%TD*%
D14*
%TO.P,R5,1*%
%TO.N,Net-(R5-Pad1)*%
X113792000Y-56476500D03*
%TO.P,R5,2*%
%TO.N,Net-(Q1-Pad1)*%
X113792000Y-54651500D03*
%TD*%
%TO.P,R7,1*%
%TO.N,Net-(R7-Pad1)*%
X113792000Y-87361000D03*
%TO.P,R7,2*%
%TO.N,Net-(Q3-Pad1)*%
X113792000Y-85536000D03*
%TD*%
D15*
%TO.P,Q4,1,B*%
%TO.N,Net-(Q4-Pad1)*%
X117680500Y-101096000D03*
%TO.P,Q4,2,E*%
%TO.N,/GND*%
X117680500Y-102996000D03*
%TO.P,Q4,3,C*%
%TO.N,Net-(D8-Pad2)*%
X119555500Y-102046000D03*
%TD*%
D20*
%TO.P,K2,COIL1*%
%TO.N,/JD-VCC*%
X129790000Y-83820000D03*
%TO.P,K2,COIL2*%
%TO.N,Net-(D6-Pad2)*%
X129790000Y-71820000D03*
%TO.P,K2,COM*%
%TO.N,Net-(K2-PadCOM)*%
X127790000Y-77820000D03*
%TO.P,K2,NC*%
%TO.N,Net-(J3-Pad4)*%
X141990000Y-71820000D03*
%TO.P,K2,NO*%
%TO.N,Net-(K2-PadNO)*%
X141990000Y-83820000D03*
%TD*%
D21*
%TO.P,D1,1,K*%
%TO.N,/IN1*%
X103886000Y-71995500D03*
%TO.P,D1,2,A*%
%TO.N,Net-(D1-Pad2)*%
X103886000Y-70120500D03*
%TD*%
D13*
%TO.P,D5,1,K*%
%TO.N,/JD-VCC*%
X122936000Y-63314000D03*
%TO.P,D5,2,A*%
%TO.N,Net-(D5-Pad2)*%
X122936000Y-60514000D03*
%TD*%
D14*
%TO.P,R1,1*%
%TO.N,/VCC*%
X110236000Y-56476500D03*
%TO.P,R1,2*%
%TO.N,Net-(R1-Pad2)*%
X110236000Y-54651500D03*
%TD*%
D11*
%TO.P,D2,1,K*%
%TO.N,/IN2*%
X103886000Y-74614000D03*
%TO.P,D2,2,A*%
%TO.N,Net-(D2-Pad2)*%
X103886000Y-76489000D03*
%TD*%
D13*
%TO.P,D7,1,K*%
%TO.N,/JD-VCC*%
X122936000Y-95318000D03*
%TO.P,D7,2,A*%
%TO.N,Net-(D7-Pad2)*%
X122936000Y-92518000D03*
%TD*%
D15*
%TO.P,Q2,1,B*%
%TO.N,Net-(Q2-Pad1)*%
X117426500Y-70042000D03*
%TO.P,Q2,2,E*%
%TO.N,/GND*%
X117426500Y-71942000D03*
%TO.P,Q2,3,C*%
%TO.N,Net-(D6-Pad2)*%
X119301500Y-70992000D03*
%TD*%
D20*
%TO.P,K3,COIL1*%
%TO.N,/JD-VCC*%
X129794000Y-100076000D03*
%TO.P,K3,COIL2*%
%TO.N,Net-(D7-Pad2)*%
X129794000Y-88076000D03*
%TO.P,K3,COM*%
%TO.N,Net-(K3-PadCOM)*%
X127794000Y-94076000D03*
%TO.P,K3,NC*%
%TO.N,Net-(J4-Pad1)*%
X141994000Y-88076000D03*
%TO.P,K3,NO*%
%TO.N,Net-(J4-Pad3)*%
X141994000Y-100076000D03*
%TD*%
D16*
%TO.P,J2,1,Pin_1*%
%TO.N,/VCC*%
X109215000Y-119572000D03*
D17*
%TO.P,J2,2,Pin_2*%
%TO.N,/JD-VCC*%
X111755000Y-119572000D03*
%TD*%
D15*
%TO.P,Q1,1,B*%
%TO.N,Net-(Q1-Pad1)*%
X117426500Y-54614000D03*
%TO.P,Q1,2,E*%
%TO.N,/GND*%
X117426500Y-56514000D03*
%TO.P,Q1,3,C*%
%TO.N,Net-(D5-Pad2)*%
X119301500Y-55564000D03*
%TD*%
D18*
%TO.P,J4,1,Pin_1*%
%TO.N,Net-(J4-Pad1)*%
X150072000Y-88942000D03*
D19*
%TO.P,J4,2,Pin_2*%
%TO.N,Net-(K3-PadCOM)*%
X150072000Y-93942000D03*
%TO.P,J4,3,Pin_3*%
%TO.N,Net-(J4-Pad3)*%
X150072000Y-98942000D03*
%TO.P,J4,4,Pin_4*%
%TO.N,Net-(J4-Pad4)*%
X150072000Y-103942000D03*
%TO.P,J4,5,Pin_5*%
%TO.N,Net-(J4-Pad5)*%
X150072000Y-108942000D03*
%TO.P,J4,6,Pin_6*%
%TO.N,Net-(J4-Pad6)*%
X150072000Y-113942000D03*
%TD*%
D20*
%TO.P,K4,COIL1*%
%TO.N,/JD-VCC*%
X129794000Y-116332000D03*
%TO.P,K4,COIL2*%
%TO.N,Net-(D8-Pad2)*%
X129794000Y-104332000D03*
%TO.P,K4,COM*%
%TO.N,Net-(J4-Pad5)*%
X127794000Y-110332000D03*
%TO.P,K4,NC*%
%TO.N,Net-(J4-Pad4)*%
X141994000Y-104332000D03*
%TO.P,K4,NO*%
%TO.N,Net-(J4-Pad6)*%
X141994000Y-116332000D03*
%TD*%
D12*
%TO.P,R8,1*%
%TO.N,Net-(R8-Pad1)*%
X113792000Y-101133500D03*
%TO.P,R8,2*%
%TO.N,Net-(Q4-Pad1)*%
X113792000Y-102958500D03*
%TD*%
D22*
%TO.N,/IN1*%
X101854000Y-77408000D03*
X102108000Y-72836000D03*
%TO.N,Net-(D4-Pad2)*%
X109728000Y-110682000D03*
X104140000Y-90616000D03*
%TO.N,/JD-VCC*%
X118872000Y-61406000D03*
X118364000Y-110174000D03*
X117094000Y-75376000D03*
X117094000Y-91378000D03*
X121158000Y-112206000D03*
%TO.N,Net-(D6-Pad2)*%
X121412000Y-71820000D03*
%TO.N,Net-(D7-Pad2)*%
X121666000Y-86298000D03*
%TO.N,/GND*%
X118364000Y-88838000D03*
X118364000Y-73598000D03*
X106934000Y-98490000D03*
X118618000Y-104332000D03*
X119380000Y-58612000D03*
%TO.N,/IN3*%
X105918000Y-83504000D03*
X104765500Y-86806000D03*
%TO.N,Net-(Q4-Pad1)*%
X116586000Y-101538000D03*
X114046000Y-105094000D03*
%TD*%
D23*
%TO.N,/IN1*%
X102108000Y-72836000D02*
X102948500Y-71995500D01*
X101949000Y-97823000D02*
X103124000Y-98998000D01*
X102948500Y-71995500D02*
X103886000Y-71995500D01*
X101854000Y-77408000D02*
X101949000Y-77503000D01*
X101949000Y-77503000D02*
X101949000Y-97823000D01*
D24*
%TO.N,Net-(D1-Pad2)*%
X107314000Y-66692500D02*
X107314000Y-63438000D01*
X103886000Y-70120500D02*
X107314000Y-66692500D01*
%TO.N,Net-(D2-Pad2)*%
X104745000Y-76489000D02*
X105664000Y-77408000D01*
X103886000Y-76489000D02*
X104745000Y-76489000D01*
X107091000Y-79694000D02*
X107314000Y-79694000D01*
X105664000Y-77408000D02*
X105664000Y-78267000D01*
X105664000Y-78267000D02*
X107091000Y-79694000D01*
D23*
%TO.N,Net-(D3-Pad2)*%
X105982198Y-94364198D02*
X105982198Y-84709802D01*
X107314000Y-95696000D02*
X105982198Y-94364198D01*
X105156000Y-82077000D02*
X105156000Y-83883604D01*
X103886000Y-80807000D02*
X105156000Y-82077000D01*
X105156000Y-83883604D02*
X105982198Y-84709802D01*
D24*
%TO.N,Net-(D4-Pad2)*%
X103886000Y-85125000D02*
X103886000Y-90362000D01*
X107696000Y-112714000D02*
X109728000Y-110682000D01*
X103886000Y-90362000D02*
X104140000Y-90616000D01*
X107060000Y-112714000D02*
X107696000Y-112714000D01*
%TO.N,/JD-VCC*%
X122936000Y-99506000D02*
X123506000Y-100076000D01*
X126150000Y-83820000D02*
X129790000Y-83820000D01*
X122936000Y-80606000D02*
X126150000Y-83820000D01*
X116714000Y-75756000D02*
X117094000Y-75376000D01*
X116714000Y-93156000D02*
X116714000Y-91758000D01*
X122936000Y-64708000D02*
X122936000Y-63314000D01*
X123506000Y-100076000D02*
X129794000Y-100076000D01*
X118364000Y-60898000D02*
X118872000Y-61406000D01*
X116714000Y-77154000D02*
X116714000Y-75756000D01*
X129794000Y-67564000D02*
X125792000Y-67564000D01*
X122936000Y-79446000D02*
X122936000Y-80606000D01*
X122936000Y-95318000D02*
X122936000Y-99506000D01*
X121282000Y-112082000D02*
X121158000Y-112206000D01*
X122936000Y-112082000D02*
X121282000Y-112082000D01*
X116714000Y-60898000D02*
X118364000Y-60898000D01*
X116714000Y-91758000D02*
X117094000Y-91378000D01*
X116460000Y-110174000D02*
X118364000Y-110174000D01*
X125792000Y-67564000D02*
X122936000Y-64708000D01*
%TO.N,Net-(D5-Pad2)*%
X122936000Y-55564000D02*
X119301500Y-55564000D01*
X122936000Y-60514000D02*
X122936000Y-55564000D01*
X129794000Y-55564000D02*
X122936000Y-55564000D01*
%TO.N,Net-(D6-Pad2)*%
X119301500Y-70992000D02*
X120584000Y-70992000D01*
X120584000Y-70992000D02*
X121158000Y-71566000D01*
X121158000Y-71566000D02*
X121412000Y-71820000D01*
X122936000Y-73344000D02*
X121412000Y-71820000D01*
X122936000Y-76646000D02*
X122936000Y-73344000D01*
%TO.N,Net-(D7-Pad2)*%
X121666000Y-86298000D02*
X119301500Y-86298000D01*
X122936000Y-87568000D02*
X121666000Y-86298000D01*
X122936000Y-92518000D02*
X122936000Y-87568000D01*
%TO.N,Net-(D8-Pad2)*%
X119555500Y-102046000D02*
X120904000Y-102046000D01*
X129794000Y-104332000D02*
X123190000Y-104332000D01*
X122936000Y-104078000D02*
X122936000Y-109282000D01*
X123190000Y-104332000D02*
X122936000Y-104078000D01*
X120904000Y-102046000D02*
X122936000Y-104078000D01*
D23*
%TO.N,/GND*%
X117680500Y-102996000D02*
X117680500Y-103394500D01*
X117426500Y-87900500D02*
X118364000Y-88838000D01*
X117426500Y-56658500D02*
X119380000Y-58612000D01*
X117426500Y-71942000D02*
X117426500Y-72660500D01*
X117426500Y-87248000D02*
X117426500Y-87900500D01*
X117680500Y-103394500D02*
X118618000Y-104332000D01*
X117426500Y-72660500D02*
X118364000Y-73598000D01*
X117426500Y-56514000D02*
X117426500Y-56658500D01*
%TO.N,/IN2*%
X101092000Y-101284000D02*
X101092000Y-75884000D01*
X102362000Y-74614000D02*
X103886000Y-74614000D01*
X103124000Y-101538000D02*
X101346000Y-101538000D01*
X101346000Y-101538000D02*
X101092000Y-101284000D01*
X101092000Y-75884000D02*
X102362000Y-74614000D01*
%TO.N,/IN3*%
X104765500Y-86806000D02*
X104902000Y-86942500D01*
X104648000Y-78932000D02*
X105918000Y-80202000D01*
X104902000Y-86942500D02*
X104902000Y-102300000D01*
X105918000Y-80202000D02*
X105918000Y-83504000D01*
X104902000Y-102300000D02*
X103124000Y-104078000D01*
X103886000Y-78932000D02*
X104648000Y-78932000D01*
%TO.N,/IN4*%
X105410000Y-104332000D02*
X105410000Y-87186805D01*
X105490500Y-84854500D02*
X103886000Y-83250000D01*
X105490500Y-87106305D02*
X105490500Y-84854500D01*
X103124000Y-106618000D02*
X105410000Y-104332000D01*
X105410000Y-87186805D02*
X105490500Y-87106305D01*
D24*
%TO.N,/VCC*%
X104140000Y-115762000D02*
X107950000Y-119572000D01*
X110236000Y-101030000D02*
X109728000Y-101030000D01*
X112014000Y-86806000D02*
X112014000Y-99252000D01*
X112014000Y-99252000D02*
X110236000Y-101030000D01*
X107950000Y-119572000D02*
X109215000Y-119572000D01*
X107315000Y-104967000D02*
X107315000Y-103443000D01*
X111252000Y-70042000D02*
X112014000Y-70804000D01*
X110236000Y-70042000D02*
X111252000Y-70042000D01*
X103124000Y-109158000D02*
X104140000Y-110174000D01*
X107315000Y-103443000D02*
X109728000Y-101030000D01*
X112014000Y-57088000D02*
X112014000Y-70804000D01*
X104140000Y-110174000D02*
X104140000Y-115762000D01*
X107315000Y-104967000D02*
X103124000Y-109158000D01*
X112014000Y-86806000D02*
X111355500Y-87464500D01*
X112014000Y-70804000D02*
X112014000Y-86806000D01*
X111402500Y-56476500D02*
X112014000Y-57088000D01*
X110236000Y-56476500D02*
X111402500Y-56476500D01*
X111355500Y-87464500D02*
X110236000Y-87464500D01*
D25*
%TO.N,Net-(J3-Pad1)*%
X144130000Y-57700000D02*
X141994000Y-55564000D01*
X150072000Y-57700000D02*
X144130000Y-57700000D01*
%TO.N,Net-(K1-PadCOM)*%
X150072000Y-62700000D02*
X137438000Y-62700000D01*
X127794000Y-61564000D02*
X136302000Y-61564000D01*
X137438000Y-62700000D02*
X136302000Y-61564000D01*
%TO.N,Net-(K1-PadNO)*%
X150072000Y-67700000D02*
X142130000Y-67700000D01*
X142130000Y-67700000D02*
X141994000Y-67564000D01*
%TO.N,Net-(J3-Pad4)*%
X150072000Y-72700000D02*
X142870000Y-72700000D01*
X142870000Y-72700000D02*
X141990000Y-71820000D01*
%TO.N,Net-(K2-PadCOM)*%
X149952000Y-77820000D02*
X150072000Y-77700000D01*
X127790000Y-77820000D02*
X149952000Y-77820000D01*
%TO.N,Net-(K2-PadNO)*%
X143110000Y-82700000D02*
X141990000Y-83820000D01*
X150072000Y-82700000D02*
X143110000Y-82700000D01*
%TO.N,Net-(J4-Pad1)*%
X150072000Y-88942000D02*
X142860000Y-88942000D01*
X142860000Y-88942000D02*
X141994000Y-88076000D01*
%TO.N,Net-(K3-PadCOM)*%
X127928000Y-93942000D02*
X127794000Y-94076000D01*
X150072000Y-93942000D02*
X127928000Y-93942000D01*
%TO.N,Net-(J4-Pad3)*%
X143128000Y-98942000D02*
X141994000Y-100076000D01*
X150072000Y-98942000D02*
X143128000Y-98942000D01*
%TO.N,Net-(J4-Pad4)*%
X142384000Y-103942000D02*
X141994000Y-104332000D01*
X150072000Y-103942000D02*
X142384000Y-103942000D01*
%TO.N,Net-(J4-Pad5)*%
X140170000Y-108942000D02*
X138780000Y-110332000D01*
X127794000Y-110332000D02*
X138780000Y-110332000D01*
X150072000Y-108942000D02*
X140170000Y-108942000D01*
%TO.N,Net-(J4-Pad6)*%
X144384000Y-113942000D02*
X141994000Y-116332000D01*
X150072000Y-113942000D02*
X144384000Y-113942000D01*
D24*
%TO.N,Net-(Q1-Pad1)*%
X117389000Y-54651500D02*
X117426500Y-54614000D01*
X113792000Y-54651500D02*
X117389000Y-54651500D01*
%TO.N,Net-(Q2-Pad1)*%
X113792000Y-70042000D02*
X117426500Y-70042000D01*
%TO.N,Net-(Q3-Pad1)*%
X113980000Y-85348000D02*
X113792000Y-85536000D01*
X117426500Y-85348000D02*
X113980000Y-85348000D01*
%TO.N,Net-(Q4-Pad1)*%
X113792000Y-102958500D02*
X114046000Y-103212500D01*
X116586000Y-101538000D02*
X117028000Y-101096000D01*
X114046000Y-103212500D02*
X114046000Y-105094000D01*
X117028000Y-101096000D02*
X117680500Y-101096000D01*
%TO.N,Net-(R1-Pad2)*%
X110236000Y-54651500D02*
X107314000Y-57573500D01*
X107314000Y-57573500D02*
X107314000Y-60898000D01*
%TO.N,Net-(R2-Pad2)*%
X110236000Y-71867000D02*
X107314000Y-74789000D01*
X107314000Y-74789000D02*
X107314000Y-77154000D01*
%TO.N,Net-(R3-Pad2)*%
X107314000Y-87442000D02*
X109116500Y-85639500D01*
X107314000Y-87442000D02*
X107314000Y-93156000D01*
X109116500Y-85639500D02*
X110236000Y-85639500D01*
%TO.N,Net-(R4-Pad2)*%
X107060000Y-110174000D02*
X107188000Y-110174000D01*
X107188000Y-110174000D02*
X110236000Y-107126000D01*
X110236000Y-107126000D02*
X110236000Y-102855000D01*
%TO.N,Net-(R5-Pad1)*%
X113792000Y-56476500D02*
X113792000Y-62930000D01*
X113792000Y-62930000D02*
X114300000Y-63438000D01*
X114300000Y-63438000D02*
X116714000Y-63438000D01*
%TO.N,Net-(R6-Pad1)*%
X116714000Y-79694000D02*
X114554000Y-79694000D01*
X114554000Y-79694000D02*
X113792000Y-78932000D01*
X113792000Y-78932000D02*
X113792000Y-71867000D01*
%TO.N,Net-(R7-Pad1)*%
X116714000Y-95696000D02*
X114554000Y-95696000D01*
X113792000Y-94934000D02*
X113792000Y-87361000D01*
X114554000Y-95696000D02*
X113792000Y-94934000D01*
%TO.N,Net-(R8-Pad1)*%
X116460000Y-112714000D02*
X113284000Y-112714000D01*
X113053500Y-101133500D02*
X113792000Y-101133500D01*
X112268000Y-101919000D02*
X113053500Y-101133500D01*
X112268000Y-111698000D02*
X112268000Y-101919000D01*
X113284000Y-112714000D02*
X112268000Y-111698000D01*
%TD*%
M02*
