M48
; DRILL file {KiCad (6.0.7)} date Tue Jan 17 21:34:40 2023
; FORMAT={-:-/ absolute / inch / decimal}
; #@! TF.CreationDate,2023-01-17T21:34:40+03:00
; #@! TF.GenerationSoftware,Kicad,Pcbnew,(6.0.7)
; #@! TF.FileFunction,Plated,1,2,PTH
FMAT,2
INCH
; #@! TA.AperFunction,Plated,PTH,ViaDrill
T1C0.0157
; #@! TA.AperFunction,Plated,PTH,ComponentDrill
T2C0.0394
; #@! TA.AperFunction,Plated,PTH,ComponentDrill
T3C0.0512
%
G90
G05
T1
X4.01Y-3.0476
X4.02Y-2.8676
X4.1Y-3.5676
X4.1246Y-3.4176
X4.17Y-3.2876
X4.21Y-3.8776
X4.32Y-4.3576
X4.49Y-4.1376
X4.59Y-3.9976
X4.61Y-2.9676
X4.61Y-3.5976
X4.66Y-2.8976
X4.66Y-3.4976
X4.66Y-4.3376
X4.67Y-4.1076
X4.68Y-2.4176
X4.7Y-2.3076
X4.77Y-4.4176
X4.78Y-2.8276
X4.79Y-3.3976
T2
X4.06Y-3.7976
X4.06Y-3.8976
X4.06Y-3.9976
X4.06Y-4.0976
X4.06Y-4.1976
X4.06Y-4.2976
X4.2998Y-4.7076
X4.3998Y-4.7076
T3
X5.0311Y-3.0638
X5.0313Y-2.4238
X5.0313Y-3.7038
X5.0313Y-4.3438
X5.1098Y-2.8276
X5.1098Y-3.3
X5.11Y-2.1876
X5.11Y-2.66
X5.11Y-3.4676
X5.11Y-3.94
X5.11Y-4.1076
X5.11Y-4.58
X5.5902Y-2.8276
X5.5902Y-3.3
X5.5903Y-2.1876
X5.5903Y-2.66
X5.5903Y-3.4676
X5.5903Y-3.94
X5.5903Y-4.1076
X5.5903Y-4.58
X5.9083Y-2.2717
X5.9083Y-2.4685
X5.9083Y-2.6654
X5.9083Y-2.8622
X5.9083Y-3.0591
X5.9083Y-3.2559
X5.9083Y-3.5017
X5.9083Y-3.6985
X5.9083Y-3.8954
X5.9083Y-4.0922
X5.9083Y-4.2891
X5.9083Y-4.4859
T0
M30
