%TF.GenerationSoftware,KiCad,Pcbnew,(6.0.7)*%
%TF.CreationDate,2023-01-17T21:26:05+03:00*%
%TF.ProjectId,4ChannelRelayModule,34436861-6e6e-4656-9c52-656c61794d6f,rev?*%
%TF.SameCoordinates,Original*%
%TF.FileFunction,Legend,Bot*%
%TF.FilePolarity,Positive*%
%FSLAX46Y46*%
G04 Gerber Fmt 4.6, Leading zero omitted, Abs format (unit mm)*
G04 Created by KiCad (PCBNEW (6.0.7)) date 2023-01-17 21:26:05*
%MOMM*%
%LPD*%
G01*
G04 APERTURE LIST*
G04 APERTURE END LIST*
%TO.C,G\u002A\u002A\u002A*%
G36*
X111623438Y-82325596D02*
G01*
X111872335Y-82380270D01*
X112091049Y-82523471D01*
X112307855Y-82779113D01*
X112551025Y-83171115D01*
X112641600Y-83325473D01*
X112854582Y-83631817D01*
X113031002Y-83785017D01*
X113180712Y-83791350D01*
X113313563Y-83657097D01*
X113349432Y-83536019D01*
X113318243Y-83341639D01*
X113208105Y-83041438D01*
X113174350Y-82958633D01*
X113086156Y-82705813D01*
X113068983Y-82548622D01*
X113116182Y-82443840D01*
X113120803Y-82438361D01*
X113302887Y-82327132D01*
X113505711Y-82364176D01*
X113702590Y-82535825D01*
X113866842Y-82828407D01*
X113892819Y-82913867D01*
X113936359Y-83173430D01*
X113955967Y-83471415D01*
X113951693Y-83621165D01*
X113859307Y-84001230D01*
X113641717Y-84271639D01*
X113291638Y-84443047D01*
X113136822Y-84479731D01*
X112827278Y-84474177D01*
X112553704Y-84337375D01*
X112297379Y-84057034D01*
X112039586Y-83620859D01*
X111981494Y-83508119D01*
X111832531Y-83238383D01*
X111720424Y-83085299D01*
X111619978Y-83020238D01*
X111506000Y-83014576D01*
X111419556Y-83038925D01*
X111289406Y-83185999D01*
X111256298Y-83437797D01*
X111326894Y-83766359D01*
X111377582Y-83987145D01*
X111328938Y-84195266D01*
X111143601Y-84315865D01*
X111022721Y-84321933D01*
X110854976Y-84215833D01*
X110720100Y-84001976D01*
X110628533Y-83717336D01*
X110590712Y-83398886D01*
X110617074Y-83083602D01*
X110718058Y-82808456D01*
X110854158Y-82620455D01*
X111163007Y-82396500D01*
X111548334Y-82322915D01*
X111623438Y-82325596D01*
G37*
G36*
X113199153Y-75120763D02*
G01*
X113548019Y-75132105D01*
X113794363Y-75151177D01*
X113904889Y-75178444D01*
X113946727Y-75254959D01*
X113962102Y-75444231D01*
X113918506Y-75636660D01*
X113827409Y-75747941D01*
X113745997Y-75766815D01*
X113518828Y-75790198D01*
X113234742Y-75799333D01*
X112776000Y-75799333D01*
X112774752Y-76159166D01*
X112732444Y-76532227D01*
X112573156Y-76861569D01*
X112275413Y-77130292D01*
X112062246Y-77240304D01*
X111677702Y-77308081D01*
X111297670Y-77238363D01*
X110965105Y-77042205D01*
X110722965Y-76730666D01*
X110676825Y-76613528D01*
X110612371Y-76323133D01*
X110592041Y-76121066D01*
X111252000Y-76121066D01*
X111252029Y-76131225D01*
X111295723Y-76429024D01*
X111432061Y-76594709D01*
X111675334Y-76646000D01*
X111838746Y-76622635D01*
X111997067Y-76544400D01*
X112011165Y-76527192D01*
X112073393Y-76358119D01*
X112098667Y-76121066D01*
X112098667Y-75799333D01*
X111252000Y-75799333D01*
X111252000Y-76121066D01*
X110592041Y-76121066D01*
X110578446Y-75985937D01*
X110576692Y-75654947D01*
X110608752Y-75383166D01*
X110676267Y-75223599D01*
X110683197Y-75218679D01*
X110817474Y-75188953D01*
X111082291Y-75163697D01*
X111444352Y-75143376D01*
X111870364Y-75128457D01*
X112098667Y-75123932D01*
X112327030Y-75119405D01*
X112781058Y-75116685D01*
X113199153Y-75120763D01*
G37*
G36*
X112265950Y-79863334D02*
G01*
X112768112Y-79866313D01*
X113210467Y-79874384D01*
X113368667Y-79879829D01*
X113565635Y-79886609D01*
X113806236Y-79902053D01*
X113904889Y-79919777D01*
X113916052Y-79935340D01*
X113952669Y-80094658D01*
X113965986Y-80360051D01*
X113958336Y-80681137D01*
X113932050Y-81007539D01*
X113889460Y-81288876D01*
X113832900Y-81474771D01*
X113730024Y-81624104D01*
X113446753Y-81840815D01*
X113089801Y-81961096D01*
X112709855Y-81971731D01*
X112357601Y-81859500D01*
X112092288Y-81785686D01*
X111672262Y-81788399D01*
X111459834Y-81803929D01*
X111249839Y-81792445D01*
X111090147Y-81724059D01*
X110911641Y-81579818D01*
X110802989Y-81476443D01*
X110686525Y-81317218D01*
X110625104Y-81116485D01*
X110592193Y-80810337D01*
X110581505Y-80573931D01*
X110581672Y-80561267D01*
X111260755Y-80561267D01*
X111268056Y-80764925D01*
X111291459Y-80908689D01*
X111391099Y-81118540D01*
X111539386Y-81202645D01*
X111710570Y-81139223D01*
X111715169Y-81135240D01*
X111806842Y-80972192D01*
X111842964Y-80752333D01*
X112437334Y-80752333D01*
X112446030Y-80858029D01*
X112539189Y-81117644D01*
X112704142Y-81311300D01*
X112903000Y-81387333D01*
X113031712Y-81343585D01*
X113199334Y-81218000D01*
X113307673Y-81053853D01*
X113368667Y-80752333D01*
X113368667Y-80456000D01*
X112437334Y-80456000D01*
X112437334Y-80752333D01*
X111842964Y-80752333D01*
X111844667Y-80741966D01*
X111844612Y-80716913D01*
X111827477Y-80539419D01*
X111744165Y-80468719D01*
X111543223Y-80456000D01*
X111480469Y-80456241D01*
X111316500Y-80475278D01*
X111260755Y-80561267D01*
X110581672Y-80561267D01*
X110585390Y-80279002D01*
X110608660Y-80078085D01*
X110662560Y-79863333D01*
X112255502Y-79863333D01*
X112265950Y-79863334D01*
G37*
G36*
X110948435Y-91717818D02*
G01*
X111129829Y-91774199D01*
X111224644Y-91935975D01*
X111252000Y-92231591D01*
X111252000Y-92478666D01*
X112550222Y-92478666D01*
X112794379Y-92479734D01*
X113219284Y-92487118D01*
X113567163Y-92500367D01*
X113807249Y-92518116D01*
X113908776Y-92538998D01*
X113941795Y-92629221D01*
X113944054Y-92814164D01*
X113919000Y-93029000D01*
X112590484Y-93052291D01*
X111261969Y-93075582D01*
X111235818Y-93382383D01*
X111218446Y-93498895D01*
X111118136Y-93725957D01*
X110958480Y-93827456D01*
X110765167Y-93781600D01*
X110753301Y-93773634D01*
X110684052Y-93690535D01*
X110638449Y-93538329D01*
X110609991Y-93283626D01*
X110592178Y-92893033D01*
X110583951Y-92563974D01*
X110586612Y-92191505D01*
X110613392Y-91945830D01*
X110671036Y-91801657D01*
X110766286Y-91733699D01*
X110905888Y-91716666D01*
X110948435Y-91717818D01*
G37*
G36*
X113018155Y-86972132D02*
G01*
X113390987Y-86982005D01*
X113671994Y-87000023D01*
X113827409Y-87026725D01*
X113916051Y-87115170D01*
X113961334Y-87314000D01*
X113960928Y-87341487D01*
X113927029Y-87499370D01*
X113816879Y-87594198D01*
X113599827Y-87640465D01*
X113245226Y-87652666D01*
X112796969Y-87652666D01*
X112757869Y-88124153D01*
X112714735Y-88431440D01*
X112625535Y-88654097D01*
X112461351Y-88853059D01*
X112388864Y-88918915D01*
X112046185Y-89105644D01*
X111666178Y-89159004D01*
X111290920Y-89085508D01*
X110962490Y-88891669D01*
X110722965Y-88584000D01*
X110676825Y-88466862D01*
X110612371Y-88176466D01*
X110592041Y-87974400D01*
X111252000Y-87974400D01*
X111252029Y-87984558D01*
X111295723Y-88282357D01*
X111432061Y-88448042D01*
X111675334Y-88499333D01*
X111838746Y-88475969D01*
X111997067Y-88397733D01*
X112011165Y-88380525D01*
X112073393Y-88211453D01*
X112098667Y-87974400D01*
X112098667Y-87652666D01*
X111252000Y-87652666D01*
X111252000Y-87974400D01*
X110592041Y-87974400D01*
X110578446Y-87839271D01*
X110576692Y-87508280D01*
X110608752Y-87236499D01*
X110676267Y-87076933D01*
X110743741Y-87053818D01*
X110958435Y-87026118D01*
X111283900Y-87003334D01*
X111686371Y-86986006D01*
X112098667Y-86975521D01*
X112132081Y-86974671D01*
X112587265Y-86969867D01*
X113018155Y-86972132D01*
G37*
G36*
X112771787Y-94174788D02*
G01*
X113212150Y-94183260D01*
X113567079Y-94196377D01*
X113808609Y-94213085D01*
X113908776Y-94232331D01*
X113941795Y-94322555D01*
X113944054Y-94507498D01*
X113919000Y-94722333D01*
X112295446Y-94745306D01*
X112073400Y-94748392D01*
X111567147Y-94754076D01*
X111198742Y-94753959D01*
X110945095Y-94745946D01*
X110783115Y-94727945D01*
X110689714Y-94697861D01*
X110641800Y-94653603D01*
X110616284Y-94593076D01*
X110604370Y-94553202D01*
X110585201Y-94423844D01*
X110622009Y-94327292D01*
X110733676Y-94258843D01*
X110939086Y-94213793D01*
X111257120Y-94187439D01*
X111706660Y-94175075D01*
X112306589Y-94172000D01*
X112771787Y-94174788D01*
G37*
G36*
X112255502Y-89515333D02*
G01*
X112265950Y-89515334D01*
X112768112Y-89518313D01*
X113210467Y-89526384D01*
X113565635Y-89538609D01*
X113806236Y-89554053D01*
X113904889Y-89571777D01*
X113919920Y-89616761D01*
X113941239Y-89803663D01*
X113955888Y-90096313D01*
X113961334Y-90455072D01*
X113958923Y-90816433D01*
X113946916Y-91070960D01*
X113918771Y-91220405D01*
X113867956Y-91297994D01*
X113787937Y-91336956D01*
X113618419Y-91357226D01*
X113475098Y-91264228D01*
X113394132Y-91031563D01*
X113368667Y-90647966D01*
X113368667Y-90108000D01*
X112446183Y-90108000D01*
X112420591Y-90552500D01*
X112403754Y-90782332D01*
X112367942Y-90929964D01*
X112289280Y-90987334D01*
X112141000Y-90997000D01*
X112009304Y-90990691D01*
X111922191Y-90942893D01*
X111881816Y-90811015D01*
X111861409Y-90552500D01*
X111842665Y-90300219D01*
X111803858Y-90165054D01*
X111715573Y-90115169D01*
X111547777Y-90108000D01*
X111259737Y-90108000D01*
X111234702Y-90670661D01*
X111195791Y-91034225D01*
X111104165Y-91290542D01*
X110960933Y-91387480D01*
X110765167Y-91326335D01*
X110713444Y-91281329D01*
X110651507Y-91152320D01*
X110613694Y-90925441D01*
X110591896Y-90565052D01*
X110585075Y-90405360D01*
X110571606Y-90087875D01*
X110579383Y-89855980D01*
X110629536Y-89696340D01*
X110743197Y-89595623D01*
X110941493Y-89540497D01*
X111245557Y-89517628D01*
X111676516Y-89513685D01*
X112255502Y-89515333D01*
G37*
G36*
X113713846Y-77909487D02*
G01*
X113761253Y-77957842D01*
X113870449Y-78093109D01*
X113930567Y-78242995D01*
X113956049Y-78459040D01*
X113961334Y-78792781D01*
X113961228Y-78860604D01*
X113954261Y-79164298D01*
X113929478Y-79343783D01*
X113877247Y-79437434D01*
X113787937Y-79483622D01*
X113696970Y-79503282D01*
X113513715Y-79451329D01*
X113404713Y-79249585D01*
X113368667Y-78896233D01*
X113362195Y-78736180D01*
X113325457Y-78494821D01*
X113267067Y-78356266D01*
X113242743Y-78339934D01*
X113067706Y-78295334D01*
X112784047Y-78266379D01*
X112437970Y-78253068D01*
X112075682Y-78255401D01*
X111743388Y-78273378D01*
X111487292Y-78307000D01*
X111353600Y-78356266D01*
X111316362Y-78425025D01*
X111270081Y-78634557D01*
X111252000Y-78908415D01*
X111250530Y-79043989D01*
X111229168Y-79257684D01*
X111166578Y-79377114D01*
X111042841Y-79454263D01*
X110973117Y-79482645D01*
X110776177Y-79502971D01*
X110650839Y-79391642D01*
X110591010Y-79138972D01*
X110590595Y-78735271D01*
X110591361Y-78721800D01*
X110616975Y-78405613D01*
X110662747Y-78201301D01*
X110749193Y-78053308D01*
X110896831Y-77906081D01*
X110941154Y-77866689D01*
X111048808Y-77780612D01*
X111161350Y-77722851D01*
X111311669Y-77687756D01*
X111532655Y-77669682D01*
X111857196Y-77662979D01*
X112318182Y-77662000D01*
X113466359Y-77662000D01*
X113713846Y-77909487D01*
G37*
G36*
X112363828Y-69157336D02*
G01*
X112440525Y-69209109D01*
X112482004Y-69351266D01*
X112504565Y-69623270D01*
X112529462Y-70093541D01*
X112574290Y-70105531D01*
X112885881Y-70188869D01*
X113311102Y-70355273D01*
X113765464Y-70682556D01*
X114112897Y-71118805D01*
X114335348Y-71640011D01*
X114414767Y-72222166D01*
X114416132Y-72329020D01*
X114440687Y-72609230D01*
X114504194Y-72734286D01*
X114617465Y-72713812D01*
X114791308Y-72557434D01*
X114794872Y-72553626D01*
X114857782Y-72476135D01*
X114904514Y-72381160D01*
X114937956Y-72243394D01*
X114960995Y-72037530D01*
X114976519Y-71738259D01*
X114987413Y-71320274D01*
X114996567Y-70758267D01*
X114998682Y-70613075D01*
X115007495Y-70091374D01*
X115017959Y-69711360D01*
X115032760Y-69450646D01*
X115054580Y-69286842D01*
X115086104Y-69197559D01*
X115130016Y-69160408D01*
X115189000Y-69153000D01*
X115206279Y-69153329D01*
X115206691Y-69153428D01*
X115260806Y-69166392D01*
X115301076Y-69214983D01*
X115329737Y-69321400D01*
X115349439Y-69507943D01*
X115362832Y-69796912D01*
X115372565Y-70210608D01*
X115381288Y-70771329D01*
X115389644Y-71291849D01*
X115400499Y-71725101D01*
X115415643Y-72035722D01*
X115437710Y-72248182D01*
X115469334Y-72386949D01*
X115513149Y-72476494D01*
X115571788Y-72541284D01*
X115676371Y-72687691D01*
X115740461Y-72962211D01*
X115705058Y-73247850D01*
X115570282Y-73470744D01*
X115554315Y-73486033D01*
X115532690Y-73513689D01*
X115513174Y-73554821D01*
X115495641Y-73617633D01*
X115479967Y-73710326D01*
X115466027Y-73841104D01*
X115453695Y-74018171D01*
X115442845Y-74249729D01*
X115433354Y-74543980D01*
X115425095Y-74909129D01*
X115417943Y-75353378D01*
X115411774Y-75884930D01*
X115406461Y-76511988D01*
X115401880Y-77242755D01*
X115397905Y-78085435D01*
X115394412Y-79048229D01*
X115391275Y-80139342D01*
X115388369Y-81366975D01*
X115385568Y-82739333D01*
X115382747Y-84264618D01*
X115379782Y-85951033D01*
X115358334Y-98278333D01*
X114977334Y-98332443D01*
X114977334Y-73651247D01*
X114793242Y-73455290D01*
X114705287Y-73374910D01*
X114456523Y-73264548D01*
X114218007Y-73306745D01*
X114025334Y-73499454D01*
X113917981Y-73644030D01*
X113635792Y-73902606D01*
X113288199Y-74128797D01*
X112938523Y-74277286D01*
X112669026Y-74335640D01*
X112097346Y-74346805D01*
X111543307Y-74218363D01*
X111045287Y-73961821D01*
X110641667Y-73588684D01*
X110517452Y-73448668D01*
X110320387Y-73311457D01*
X111025927Y-73311457D01*
X111133045Y-73440624D01*
X111248401Y-73546698D01*
X111555916Y-73736558D01*
X111908786Y-73878022D01*
X112225667Y-73934335D01*
X112229279Y-73934346D01*
X112495095Y-73910633D01*
X112777441Y-73852994D01*
X112944948Y-73788332D01*
X113157075Y-73670765D01*
X113353300Y-73533383D01*
X113500891Y-73402229D01*
X113567117Y-73303345D01*
X113519248Y-73262774D01*
X113411240Y-73241174D01*
X113181244Y-73164595D01*
X112905414Y-73052325D01*
X112872369Y-73037435D01*
X112828167Y-73012388D01*
X115062000Y-73012388D01*
X115082654Y-73113530D01*
X115162542Y-73155263D01*
X115204323Y-73136146D01*
X115293537Y-73020227D01*
X115261320Y-72894208D01*
X115206691Y-72851560D01*
X115102960Y-72860081D01*
X115062000Y-73012388D01*
X112828167Y-73012388D01*
X112593429Y-72879374D01*
X112450720Y-72731091D01*
X112452411Y-72607088D01*
X112606667Y-72521865D01*
X112706380Y-72491582D01*
X112776000Y-72455789D01*
X112765055Y-72424151D01*
X112693692Y-72284604D01*
X112581674Y-72085392D01*
X112459419Y-71878604D01*
X112357343Y-71716332D01*
X112305865Y-71650666D01*
X112265309Y-71700576D01*
X112154546Y-71870168D01*
X111993295Y-72131508D01*
X111800164Y-72455000D01*
X111788699Y-72474455D01*
X111559536Y-72847864D01*
X111387376Y-73089802D01*
X111256021Y-73220286D01*
X111149272Y-73259333D01*
X111036107Y-73265265D01*
X111025927Y-73311457D01*
X110320387Y-73311457D01*
X110289439Y-73289909D01*
X110070574Y-73289462D01*
X109839290Y-73443425D01*
X109643333Y-73627517D01*
X109643334Y-83759636D01*
X109643352Y-84906988D01*
X109643512Y-86308204D01*
X109643963Y-87555908D01*
X109644855Y-88659174D01*
X109646337Y-89627074D01*
X109648558Y-90468681D01*
X109651667Y-91193067D01*
X109655815Y-91809307D01*
X109661150Y-92326471D01*
X109667821Y-92753633D01*
X109675979Y-93099866D01*
X109685772Y-93374242D01*
X109697351Y-93585834D01*
X109710863Y-93743716D01*
X109726459Y-93856958D01*
X109744288Y-93934635D01*
X109764500Y-93985819D01*
X109787243Y-94019583D01*
X109812667Y-94044999D01*
X109940941Y-94247767D01*
X109986585Y-94515062D01*
X109944515Y-94774227D01*
X109814588Y-94956991D01*
X109758767Y-95005584D01*
X109714200Y-95081589D01*
X109682040Y-95206444D01*
X109659620Y-95404246D01*
X109644267Y-95699091D01*
X109633313Y-96115074D01*
X109624088Y-96676292D01*
X109619947Y-96959098D01*
X109611423Y-97444167D01*
X109600760Y-97793565D01*
X109584962Y-98030146D01*
X109561034Y-98176766D01*
X109525978Y-98256276D01*
X109476799Y-98291532D01*
X109410500Y-98305388D01*
X109220000Y-98332443D01*
X109220000Y-96721737D01*
X109219918Y-96407451D01*
X109218162Y-95927149D01*
X109211828Y-95577428D01*
X109197969Y-95332912D01*
X109173638Y-95168225D01*
X109135886Y-95057989D01*
X109081768Y-94976827D01*
X109008334Y-94899363D01*
X108970381Y-94859084D01*
X108819515Y-94586359D01*
X108826172Y-94440644D01*
X109259441Y-94440644D01*
X109300301Y-94547009D01*
X109405221Y-94628621D01*
X109502957Y-94622820D01*
X109521593Y-94597650D01*
X109558667Y-94454222D01*
X109505717Y-94365974D01*
X109379577Y-94345568D01*
X109268262Y-94416406D01*
X109259441Y-94440644D01*
X108826172Y-94440644D01*
X108832166Y-94309436D01*
X109008334Y-94052415D01*
X109220000Y-93856249D01*
X109220000Y-73664777D01*
X109008334Y-73413226D01*
X108952074Y-73343075D01*
X108819146Y-73092787D01*
X108825430Y-73012388D01*
X109304667Y-73012388D01*
X109325321Y-73113530D01*
X109379577Y-73141873D01*
X109405209Y-73155263D01*
X109446990Y-73136146D01*
X109536204Y-73020227D01*
X109503986Y-72894208D01*
X109449357Y-72851560D01*
X109345627Y-72860081D01*
X109304667Y-73012388D01*
X108825430Y-73012388D01*
X108837299Y-72860539D01*
X109006424Y-72599709D01*
X109033457Y-72567210D01*
X109099909Y-72476143D01*
X109148523Y-72372528D01*
X109182592Y-72230236D01*
X109205408Y-72023137D01*
X109220263Y-71725103D01*
X109230449Y-71310005D01*
X109239257Y-70751713D01*
X109241233Y-70616444D01*
X109250054Y-70093577D01*
X109260503Y-69712702D01*
X109275280Y-69451384D01*
X109297085Y-69287189D01*
X109328617Y-69197683D01*
X109372578Y-69160431D01*
X109431667Y-69153000D01*
X109446986Y-69153250D01*
X109449357Y-69153781D01*
X109502196Y-69165620D01*
X109542964Y-69212982D01*
X109571973Y-69317723D01*
X109591907Y-69502233D01*
X109605451Y-69788901D01*
X109615287Y-70200116D01*
X109624100Y-70758267D01*
X109624554Y-70789673D01*
X109633725Y-71344002D01*
X109644780Y-71755554D01*
X109660606Y-72049637D01*
X109684089Y-72251559D01*
X109718118Y-72386627D01*
X109765579Y-72480150D01*
X109829359Y-72557434D01*
X109967953Y-72687869D01*
X110099724Y-72741786D01*
X110163644Y-72642004D01*
X110165785Y-72385419D01*
X110175469Y-72002620D01*
X110175503Y-72002487D01*
X110619141Y-72002487D01*
X110623690Y-72460885D01*
X110667381Y-72636051D01*
X110747010Y-72729416D01*
X110897795Y-72734797D01*
X111038110Y-72684929D01*
X111202155Y-72529784D01*
X111395154Y-72243333D01*
X111528192Y-72014035D01*
X111634211Y-71814655D01*
X111674983Y-71714166D01*
X111602460Y-71669415D01*
X111426330Y-71650666D01*
X111422377Y-71650658D01*
X111196625Y-71610779D01*
X111107703Y-71504983D01*
X111170412Y-71350624D01*
X111187613Y-71333237D01*
X111376252Y-71255306D01*
X111685700Y-71227333D01*
X112098667Y-71227333D01*
X112098667Y-71218484D01*
X112522000Y-71218484D01*
X112966500Y-71244075D01*
X113090460Y-71252420D01*
X113299115Y-71283729D01*
X113400278Y-71346241D01*
X113438055Y-71460166D01*
X113438571Y-71576937D01*
X113361711Y-71637266D01*
X113160361Y-71650666D01*
X112855611Y-71650666D01*
X113048238Y-71985364D01*
X113089785Y-72056658D01*
X113193076Y-72211280D01*
X113254835Y-72237960D01*
X113302038Y-72154697D01*
X113391131Y-72020011D01*
X113506278Y-72002697D01*
X113610478Y-72094594D01*
X113673662Y-72267663D01*
X113665762Y-72493865D01*
X113642595Y-72626124D01*
X113667345Y-72728206D01*
X113785273Y-72751333D01*
X113861721Y-72743494D01*
X113926226Y-72686626D01*
X113953597Y-72540221D01*
X113957944Y-72264500D01*
X113954349Y-72151351D01*
X113848507Y-71617290D01*
X113601565Y-71173995D01*
X113220552Y-70830879D01*
X112712500Y-70597353D01*
X112679147Y-70587504D01*
X112574290Y-70580170D01*
X112530685Y-70664226D01*
X112522000Y-70878536D01*
X112522000Y-71218484D01*
X112098667Y-71218484D01*
X112098667Y-70882961D01*
X112098362Y-70816557D01*
X112084005Y-70635444D01*
X112029227Y-70575301D01*
X111908167Y-70597353D01*
X111881369Y-70605836D01*
X111414354Y-70830546D01*
X111034776Y-71157862D01*
X110762937Y-71558327D01*
X110619141Y-72002487D01*
X110175503Y-72002487D01*
X110306216Y-71491058D01*
X110551916Y-71020373D01*
X110889886Y-70622244D01*
X111297441Y-70328349D01*
X111751898Y-70170368D01*
X112029227Y-70123514D01*
X112090620Y-70113142D01*
X112115810Y-69633071D01*
X112126201Y-69470218D01*
X112155945Y-69267879D01*
X112212033Y-69175193D01*
X112305865Y-69154009D01*
X112310334Y-69153000D01*
X112363828Y-69157336D01*
G37*
G36*
X113943149Y-85724700D02*
G01*
X113919000Y-86594333D01*
X113411000Y-86594333D01*
X113360930Y-85451333D01*
X112437334Y-85451333D01*
X112437334Y-85865608D01*
X112431451Y-86017343D01*
X112368996Y-86260730D01*
X112229501Y-86363202D01*
X112002073Y-86336547D01*
X111909695Y-86277095D01*
X111858445Y-86134845D01*
X111844667Y-85868961D01*
X111844667Y-85451333D01*
X111252000Y-85451333D01*
X111252000Y-85910075D01*
X111251537Y-86001532D01*
X111234018Y-86325645D01*
X111180359Y-86518986D01*
X111075878Y-86612384D01*
X110905888Y-86636666D01*
X110868276Y-86635816D01*
X110732594Y-86604640D01*
X110644856Y-86509372D01*
X110597320Y-86323915D01*
X110582247Y-86022173D01*
X110591896Y-85578049D01*
X110617000Y-84901000D01*
X112292149Y-84878033D01*
X113967297Y-84855067D01*
X113943149Y-85724700D01*
G37*
%TD*%
M02*
